<?xml version="1.0" encoding="utf-8"?>
<svg width="800px" height="800px" viewBox="0 0 48 48" xmlns="http://www.w3.org/2000/svg" fill="currentColor">
<title>focus-orbit</title>
<path d="M24,27.5A3.5,3.5,0,1,1,27.5,24,3.5,3.5,0,0,1,24,27.5Zm0-6A2.5,2.5,0,1,0,26.5,24,2.5,2.5,0,0,0,24,21.5Z"/>
<ellipse cx="24" cy="24" rx="15" ry="9" transform="rotate(-15 24 24)" fill="none" stroke="currentColor" stroke-width="0.6" opacity="0.35"/>
<circle cx="36.6" cy="26.6" r="2.2" fill="currentColor"/>
<circle cx="9.6" cy="24.7" r="1.8" fill="currentColor"/>
<circle cx="29.2" cy="14.5" r="1.3" fill="currentColor"/>
<path d="M1.5,13A0.5,0.5,0,0,1,1,12.5v-9A2.5,2.5,0,0,1,3.5,1h9a0.5,0.5,0,0,1,0,1h-9A1.5,1.5,0,0,0,2,3.5v9A0.5,0.5,0,0,1,1.5,13Z"/>
<path d="M46.5,13a0.5,0.5,0,0,1-.5-0.5v-9A1.5,1.5,0,0,0,44.5,2h-9a0.5,0.5,0,0,1,0-1h9A2.5,2.5,0,0,1,47,3.5v9A0.5,0.5,0,0,1,46.5,13Z"/>
<path d="M12.5,47h-9A2.5,2.5,0,0,1,1,44.5v-9a0.5,0.5,0,0,1,1,0v9A1.5,1.5,0,0,0,3.5,46h9A0.5,0.5,0,0,1,12.5,47Z"/>
<path d="M44.5,47h-9a0.5,0.5,0,0,1,0-1h9A1.5,1.5,0,0,0,46,44.5v-9a0.5,0.5,0,0,1,1,0v9A2.5,2.5,0,0,1,44.5,47Z"/>
<rect width="48" height="48" fill="none"/>
</svg>
